<mxfile host="app.diagrams.net" modified="2022-03-29T15:44:29.983Z" agent="5.0 (Windows NT 10.0; Win64; x64) AppleWebKit/537.36 (KHTML, like Gecko) Chrome/99.0.4844.82 Safari/537.36" etag="6IPAxfBw63SJ9ikJ_JO3" version="17.2.4" type="github">
  <diagram id="EuR3VpArMFBvW40rfFiC" name="Page-1">
    <mxGraphModel dx="1322" dy="780" grid="0" gridSize="10" guides="1" tooltips="1" connect="1" arrows="1" fold="1" page="1" pageScale="1" pageWidth="827" pageHeight="1169" math="0" shadow="0">
      <root>
        <mxCell id="0" />
        <mxCell id="1" parent="0" />
        <mxCell id="rL0a_qPyrD0AK3357CQ7-1" value="&lt;b&gt;InternalOrder&lt;/b&gt;" style="swimlane;fontStyle=0;align=center;verticalAlign=middle;childLayout=stackLayout;horizontal=1;startSize=29;horizontalStack=0;resizeParent=1;resizeParentMax=0;resizeLast=0;collapsible=0;marginBottom=0;html=1;fontSize=12;labelPosition=center;verticalLabelPosition=middle;container=0;strokeColor=default;swimlaneLine=1;rounded=0;shadow=0;glass=0;sketch=0;perimeterSpacing=0;" vertex="1" parent="1">
          <mxGeometry x="394" y="203" width="150" height="211" as="geometry" />
        </mxCell>
        <mxCell id="rL0a_qPyrD0AK3357CQ7-2" value="- id: Long" style="text;strokeColor=none;fillColor=none;align=left;verticalAlign=top;spacingLeft=4;spacingRight=4;overflow=hidden;rotatable=0;points=[[0,0.5],[1,0.5]];portConstraint=eastwest;container=0;fontStyle=0" vertex="1" parent="rL0a_qPyrD0AK3357CQ7-1">
          <mxGeometry y="29" width="150" height="26" as="geometry" />
        </mxCell>
        <mxCell id="rL0a_qPyrD0AK3357CQ7-3" value="- code : String" style="text;strokeColor=none;fillColor=none;align=left;verticalAlign=top;spacingLeft=4;spacingRight=4;overflow=hidden;rotatable=0;points=[[0,0.5],[1,0.5]];portConstraint=eastwest;container=0;fontStyle=0" vertex="1" parent="rL0a_qPyrD0AK3357CQ7-1">
          <mxGeometry y="55" width="150" height="26" as="geometry" />
        </mxCell>
        <mxCell id="rL0a_qPyrD0AK3357CQ7-4" value="- name: String" style="text;strokeColor=none;fillColor=none;align=left;verticalAlign=top;spacingLeft=4;spacingRight=4;overflow=hidden;rotatable=0;points=[[0,0.5],[1,0.5]];portConstraint=eastwest;container=0;fontStyle=0" vertex="1" parent="rL0a_qPyrD0AK3357CQ7-1">
          <mxGeometry y="81" width="150" height="26" as="geometry" />
        </mxCell>
        <mxCell id="rL0a_qPyrD0AK3357CQ7-5" value="- plannedStartDate : Date" style="text;strokeColor=none;fillColor=none;align=left;verticalAlign=top;spacingLeft=4;spacingRight=4;overflow=hidden;rotatable=0;points=[[0,0.5],[1,0.5]];portConstraint=eastwest;container=0;fontStyle=0" vertex="1" parent="rL0a_qPyrD0AK3357CQ7-1">
          <mxGeometry y="107" width="150" height="26" as="geometry" />
        </mxCell>
        <mxCell id="rL0a_qPyrD0AK3357CQ7-6" value="- plannedEndDate : Date" style="text;strokeColor=none;fillColor=none;align=left;verticalAlign=top;spacingLeft=4;spacingRight=4;overflow=hidden;rotatable=0;points=[[0,0.5],[1,0.5]];portConstraint=eastwest;container=0;fontStyle=0" vertex="1" parent="rL0a_qPyrD0AK3357CQ7-1">
          <mxGeometry y="133" width="150" height="26" as="geometry" />
        </mxCell>
        <mxCell id="rL0a_qPyrD0AK3357CQ7-7" value="- startDate : Date" style="text;strokeColor=none;fillColor=none;align=left;verticalAlign=top;spacingLeft=4;spacingRight=4;overflow=hidden;rotatable=0;points=[[0,0.5],[1,0.5]];portConstraint=eastwest;container=0;fontStyle=0" vertex="1" parent="rL0a_qPyrD0AK3357CQ7-1">
          <mxGeometry y="159" width="150" height="26" as="geometry" />
        </mxCell>
        <mxCell id="rL0a_qPyrD0AK3357CQ7-8" value="- endDate : Date" style="text;strokeColor=none;fillColor=none;align=left;verticalAlign=top;spacingLeft=4;spacingRight=4;overflow=hidden;rotatable=0;points=[[0,0.5],[1,0.5]];portConstraint=eastwest;container=0;fontStyle=0" vertex="1" parent="rL0a_qPyrD0AK3357CQ7-1">
          <mxGeometry y="185" width="150" height="26" as="geometry" />
        </mxCell>
        <mxCell id="rL0a_qPyrD0AK3357CQ7-9" value="&lt;b&gt;&amp;lt;&amp;lt;enum&amp;gt;&amp;gt;&lt;br&gt;OrderStatus&lt;/b&gt;" style="swimlane;fontStyle=0;align=center;verticalAlign=middle;childLayout=stackLayout;horizontal=1;startSize=29;horizontalStack=0;resizeParent=1;resizeParentMax=0;resizeLast=0;collapsible=0;marginBottom=0;html=1;fontSize=12;labelPosition=center;verticalLabelPosition=middle;container=0;swimlaneLine=1;rounded=0;sketch=0;glass=0;" vertex="1" parent="1">
          <mxGeometry x="153" y="507" width="150" height="277" as="geometry" />
        </mxCell>
        <mxCell id="rL0a_qPyrD0AK3357CQ7-10" value="DRAFT" style="text;strokeColor=none;fillColor=none;align=left;verticalAlign=top;spacingLeft=4;spacingRight=4;overflow=hidden;rotatable=0;points=[[0,0.5],[1,0.5]];portConstraint=eastwest;container=0;fontStyle=0" vertex="1" parent="rL0a_qPyrD0AK3357CQ7-9">
          <mxGeometry y="29" width="150" height="26" as="geometry" />
        </mxCell>
        <mxCell id="rL0a_qPyrD0AK3357CQ7-11" value="SUBMITTED" style="text;strokeColor=none;fillColor=none;align=left;verticalAlign=top;spacingLeft=4;spacingRight=4;overflow=hidden;rotatable=0;points=[[0,0.5],[1,0.5]];portConstraint=eastwest;container=0;fontStyle=0" vertex="1" parent="rL0a_qPyrD0AK3357CQ7-9">
          <mxGeometry y="55" width="150" height="26" as="geometry" />
        </mxCell>
        <mxCell id="rL0a_qPyrD0AK3357CQ7-12" value="VALIDATED" style="text;whiteSpace=wrap;html=1;fontStyle=0" vertex="1" parent="rL0a_qPyrD0AK3357CQ7-9">
          <mxGeometry y="81" width="150" height="28" as="geometry" />
        </mxCell>
        <mxCell id="rL0a_qPyrD0AK3357CQ7-13" value="PLANNED" style="text;whiteSpace=wrap;html=1;fontStyle=0" vertex="1" parent="rL0a_qPyrD0AK3357CQ7-9">
          <mxGeometry y="109" width="150" height="28" as="geometry" />
        </mxCell>
        <mxCell id="rL0a_qPyrD0AK3357CQ7-14" value="STARTED" style="text;whiteSpace=wrap;html=1;fontStyle=0" vertex="1" parent="rL0a_qPyrD0AK3357CQ7-9">
          <mxGeometry y="137" width="150" height="28" as="geometry" />
        </mxCell>
        <mxCell id="rL0a_qPyrD0AK3357CQ7-15" value="DELIVERED" style="text;whiteSpace=wrap;html=1;fontStyle=0" vertex="1" parent="rL0a_qPyrD0AK3357CQ7-9">
          <mxGeometry y="165" width="150" height="28" as="geometry" />
        </mxCell>
        <mxCell id="rL0a_qPyrD0AK3357CQ7-16" value="WARRANTY" style="text;whiteSpace=wrap;html=1;fontStyle=0" vertex="1" parent="rL0a_qPyrD0AK3357CQ7-9">
          <mxGeometry y="193" width="150" height="28" as="geometry" />
        </mxCell>
        <mxCell id="rL0a_qPyrD0AK3357CQ7-17" value="CLOSED" style="text;whiteSpace=wrap;html=1;fontStyle=0" vertex="1" parent="rL0a_qPyrD0AK3357CQ7-9">
          <mxGeometry y="221" width="150" height="28" as="geometry" />
        </mxCell>
        <mxCell id="rL0a_qPyrD0AK3357CQ7-18" value="CANCELLED" style="text;whiteSpace=wrap;html=1;fontStyle=0" vertex="1" parent="rL0a_qPyrD0AK3357CQ7-9">
          <mxGeometry y="249" width="150" height="28" as="geometry" />
        </mxCell>
        <mxCell id="rL0a_qPyrD0AK3357CQ7-19" value="&lt;b&gt;&amp;lt;&amp;lt;enum&amp;gt;&amp;gt;&lt;br&gt;InternalOrderType&lt;/b&gt;" style="swimlane;fontStyle=0;align=center;verticalAlign=middle;childLayout=stackLayout;horizontal=1;startSize=29;horizontalStack=0;resizeParent=1;resizeParentMax=0;resizeLast=0;collapsible=0;marginBottom=0;html=1;fontSize=12;labelPosition=center;verticalLabelPosition=middle;container=0;swimlaneLine=1;rounded=0;sketch=0;glass=0;" vertex="1" parent="1">
          <mxGeometry x="372" y="499" width="150" height="137" as="geometry" />
        </mxCell>
        <mxCell id="rL0a_qPyrD0AK3357CQ7-20" value="TIME_AND_MATERIAL" style="text;strokeColor=none;fillColor=none;align=left;verticalAlign=top;spacingLeft=4;spacingRight=4;overflow=hidden;rotatable=0;points=[[0,0.5],[1,0.5]];portConstraint=eastwest;container=0;fontStyle=0" vertex="1" parent="rL0a_qPyrD0AK3357CQ7-19">
          <mxGeometry y="29" width="150" height="26" as="geometry" />
        </mxCell>
        <mxCell id="rL0a_qPyrD0AK3357CQ7-21" value="FIXED_PRICE" style="text;strokeColor=none;fillColor=none;align=left;verticalAlign=top;spacingLeft=4;spacingRight=4;overflow=hidden;rotatable=0;points=[[0,0.5],[1,0.5]];portConstraint=eastwest;container=0;fontStyle=0" vertex="1" parent="rL0a_qPyrD0AK3357CQ7-19">
          <mxGeometry y="55" width="150" height="26" as="geometry" />
        </mxCell>
        <mxCell id="rL0a_qPyrD0AK3357CQ7-23" value="SUPPORT_PROGRAM" style="text;whiteSpace=wrap;html=1;fontStyle=0" vertex="1" parent="rL0a_qPyrD0AK3357CQ7-19">
          <mxGeometry y="81" width="150" height="28" as="geometry" />
        </mxCell>
        <mxCell id="rL0a_qPyrD0AK3357CQ7-24" value="LICENSE" style="text;whiteSpace=wrap;html=1;fontStyle=0" vertex="1" parent="rL0a_qPyrD0AK3357CQ7-19">
          <mxGeometry y="109" width="150" height="28" as="geometry" />
        </mxCell>
        <mxCell id="rL0a_qPyrD0AK3357CQ7-29" value="&lt;div&gt;&lt;b&gt;ClientOrder&lt;/b&gt;&lt;/div&gt;" style="swimlane;fontStyle=0;align=center;verticalAlign=middle;childLayout=stackLayout;horizontal=1;startSize=29;horizontalStack=0;resizeParent=1;resizeParentMax=0;resizeLast=0;collapsible=0;marginBottom=0;html=1;fontSize=12;labelPosition=center;verticalLabelPosition=middle;container=0;strokeColor=default;swimlaneLine=1;rounded=0;shadow=0;glass=0;sketch=0;perimeterSpacing=0;" vertex="1" parent="1">
          <mxGeometry x="153" y="212" width="150" height="239" as="geometry" />
        </mxCell>
        <mxCell id="rL0a_qPyrD0AK3357CQ7-30" value="- id: Long" style="text;strokeColor=none;fillColor=none;align=left;verticalAlign=top;spacingLeft=4;spacingRight=4;overflow=hidden;rotatable=0;points=[[0,0.5],[1,0.5]];portConstraint=eastwest;container=0;fontStyle=0" vertex="1" parent="rL0a_qPyrD0AK3357CQ7-29">
          <mxGeometry y="29" width="150" height="26" as="geometry" />
        </mxCell>
        <mxCell id="rL0a_qPyrD0AK3357CQ7-31" value="- code : String" style="text;strokeColor=none;fillColor=none;align=left;verticalAlign=top;spacingLeft=4;spacingRight=4;overflow=hidden;rotatable=0;points=[[0,0.5],[1,0.5]];portConstraint=eastwest;container=0;fontStyle=0" vertex="1" parent="rL0a_qPyrD0AK3357CQ7-29">
          <mxGeometry y="55" width="150" height="26" as="geometry" />
        </mxCell>
        <mxCell id="rL0a_qPyrD0AK3357CQ7-32" value="- name: String" style="text;strokeColor=none;fillColor=none;align=left;verticalAlign=top;spacingLeft=4;spacingRight=4;overflow=hidden;rotatable=0;points=[[0,0.5],[1,0.5]];portConstraint=eastwest;container=0;fontStyle=0" vertex="1" parent="rL0a_qPyrD0AK3357CQ7-29">
          <mxGeometry y="81" width="150" height="26" as="geometry" />
        </mxCell>
        <mxCell id="rL0a_qPyrD0AK3357CQ7-33" value="- plannedStartDate : Date" style="text;strokeColor=none;fillColor=none;align=left;verticalAlign=top;spacingLeft=4;spacingRight=4;overflow=hidden;rotatable=0;points=[[0,0.5],[1,0.5]];portConstraint=eastwest;container=0;fontStyle=0" vertex="1" parent="rL0a_qPyrD0AK3357CQ7-29">
          <mxGeometry y="107" width="150" height="26" as="geometry" />
        </mxCell>
        <mxCell id="rL0a_qPyrD0AK3357CQ7-34" value="- plannedEndDate : Date" style="text;strokeColor=none;fillColor=none;align=left;verticalAlign=top;spacingLeft=4;spacingRight=4;overflow=hidden;rotatable=0;points=[[0,0.5],[1,0.5]];portConstraint=eastwest;container=0;fontStyle=0" vertex="1" parent="rL0a_qPyrD0AK3357CQ7-29">
          <mxGeometry y="133" width="150" height="26" as="geometry" />
        </mxCell>
        <mxCell id="rL0a_qPyrD0AK3357CQ7-35" value="- startDate : Date" style="text;strokeColor=none;fillColor=none;align=left;verticalAlign=top;spacingLeft=4;spacingRight=4;overflow=hidden;rotatable=0;points=[[0,0.5],[1,0.5]];portConstraint=eastwest;container=0;fontStyle=0" vertex="1" parent="rL0a_qPyrD0AK3357CQ7-29">
          <mxGeometry y="159" width="150" height="26" as="geometry" />
        </mxCell>
        <mxCell id="rL0a_qPyrD0AK3357CQ7-36" value="- endDate : Date" style="text;strokeColor=none;fillColor=none;align=left;verticalAlign=top;spacingLeft=4;spacingRight=4;overflow=hidden;rotatable=0;points=[[0,0.5],[1,0.5]];portConstraint=eastwest;container=0;fontStyle=0" vertex="1" parent="rL0a_qPyrD0AK3357CQ7-29">
          <mxGeometry y="185" width="150" height="26" as="geometry" />
        </mxCell>
        <mxCell id="rL0a_qPyrD0AK3357CQ7-61" value="stakeholderList" style="text;whiteSpace=wrap;html=1;" vertex="1" parent="rL0a_qPyrD0AK3357CQ7-29">
          <mxGeometry y="211" width="150" height="28" as="geometry" />
        </mxCell>
        <mxCell id="rL0a_qPyrD0AK3357CQ7-39" style="edgeStyle=orthogonalEdgeStyle;rounded=0;orthogonalLoop=1;jettySize=auto;html=1;dashed=1;endSize=4;startSize=4;fontStyle=0" edge="1" parent="1" source="rL0a_qPyrD0AK3357CQ7-1" target="rL0a_qPyrD0AK3357CQ7-9">
          <mxGeometry relative="1" as="geometry">
            <mxPoint x="337" y="496" as="targetPoint" />
            <Array as="points">
              <mxPoint x="420" y="462" />
              <mxPoint x="257" y="462" />
            </Array>
          </mxGeometry>
        </mxCell>
        <mxCell id="rL0a_qPyrD0AK3357CQ7-40" style="edgeStyle=orthogonalEdgeStyle;rounded=0;orthogonalLoop=1;jettySize=auto;html=1;dashed=1;startSize=4;endSize=4;fontStyle=0" edge="1" parent="1" source="rL0a_qPyrD0AK3357CQ7-29" target="rL0a_qPyrD0AK3357CQ7-9">
          <mxGeometry relative="1" as="geometry">
            <Array as="points">
              <mxPoint x="210" y="525" />
            </Array>
          </mxGeometry>
        </mxCell>
        <mxCell id="rL0a_qPyrD0AK3357CQ7-41" style="edgeStyle=orthogonalEdgeStyle;rounded=0;orthogonalLoop=1;jettySize=auto;html=1;dashed=1;endSize=4;startSize=4;fontStyle=0" edge="1" parent="1" source="rL0a_qPyrD0AK3357CQ7-1" target="rL0a_qPyrD0AK3357CQ7-19">
          <mxGeometry relative="1" as="geometry">
            <Array as="points">
              <mxPoint x="484" y="469" />
              <mxPoint x="484" y="469" />
            </Array>
          </mxGeometry>
        </mxCell>
        <mxCell id="rL0a_qPyrD0AK3357CQ7-42" style="edgeStyle=orthogonalEdgeStyle;rounded=0;orthogonalLoop=1;jettySize=auto;html=1;startSize=4;endSize=4;endArrow=none;endFill=0;fontStyle=0" edge="1" parent="1" source="rL0a_qPyrD0AK3357CQ7-33" target="rL0a_qPyrD0AK3357CQ7-1">
          <mxGeometry relative="1" as="geometry">
            <Array as="points">
              <mxPoint x="377" y="332" />
              <mxPoint x="377" y="332" />
            </Array>
          </mxGeometry>
        </mxCell>
        <mxCell id="rL0a_qPyrD0AK3357CQ7-43" value="*" style="edgeLabel;html=1;align=center;verticalAlign=middle;resizable=0;points=[];fontStyle=0" vertex="1" connectable="0" parent="rL0a_qPyrD0AK3357CQ7-42">
          <mxGeometry x="0.787" relative="1" as="geometry">
            <mxPoint as="offset" />
          </mxGeometry>
        </mxCell>
        <mxCell id="rL0a_qPyrD0AK3357CQ7-44" value="1" style="edgeLabel;html=1;align=center;verticalAlign=middle;resizable=0;points=[];fontStyle=0" vertex="1" connectable="0" parent="rL0a_qPyrD0AK3357CQ7-42">
          <mxGeometry x="-0.7797" y="1" relative="1" as="geometry">
            <mxPoint as="offset" />
          </mxGeometry>
        </mxCell>
        <mxCell id="rL0a_qPyrD0AK3357CQ7-54" value="&lt;b&gt;&amp;lt;&amp;lt;enum&amp;gt;&amp;gt;&lt;br&gt;&lt;span style=&quot;text-align: left&quot;&gt;SubOrderPriority&lt;/span&gt;&lt;/b&gt;" style="swimlane;fontStyle=0;align=center;verticalAlign=middle;childLayout=stackLayout;horizontal=1;startSize=29;horizontalStack=0;resizeParent=1;resizeParentMax=0;resizeLast=0;collapsible=0;marginBottom=0;html=1;fontSize=12;labelPosition=center;verticalLabelPosition=middle;container=0;swimlaneLine=1;rounded=0;sketch=0;glass=0;" vertex="1" parent="1">
          <mxGeometry x="591" y="499" width="150" height="109" as="geometry" />
        </mxCell>
        <mxCell id="rL0a_qPyrD0AK3357CQ7-55" value="CRITICAL" style="text;strokeColor=none;fillColor=none;align=left;verticalAlign=top;spacingLeft=4;spacingRight=4;overflow=hidden;rotatable=0;points=[[0,0.5],[1,0.5]];portConstraint=eastwest;container=0;fontStyle=0" vertex="1" parent="rL0a_qPyrD0AK3357CQ7-54">
          <mxGeometry y="29" width="150" height="26" as="geometry" />
        </mxCell>
        <mxCell id="rL0a_qPyrD0AK3357CQ7-56" value="MAJOR" style="text;strokeColor=none;fillColor=none;align=left;verticalAlign=top;spacingLeft=4;spacingRight=4;overflow=hidden;rotatable=0;points=[[0,0.5],[1,0.5]];portConstraint=eastwest;container=0;fontStyle=0" vertex="1" parent="rL0a_qPyrD0AK3357CQ7-54">
          <mxGeometry y="55" width="150" height="26" as="geometry" />
        </mxCell>
        <mxCell id="rL0a_qPyrD0AK3357CQ7-57" value="&amp;nbsp;MINOR" style="text;whiteSpace=wrap;html=1;fontStyle=0" vertex="1" parent="rL0a_qPyrD0AK3357CQ7-54">
          <mxGeometry y="81" width="150" height="28" as="geometry" />
        </mxCell>
        <mxCell id="rL0a_qPyrD0AK3357CQ7-60" style="edgeStyle=orthogonalEdgeStyle;rounded=0;orthogonalLoop=1;jettySize=auto;html=1;endArrow=classic;endFill=1;startSize=4;endSize=4;dashed=1;" edge="1" parent="1" source="rL0a_qPyrD0AK3357CQ7-1" target="rL0a_qPyrD0AK3357CQ7-54">
          <mxGeometry relative="1" as="geometry">
            <Array as="points">
              <mxPoint x="666" y="370" />
            </Array>
          </mxGeometry>
        </mxCell>
      </root>
    </mxGraphModel>
  </diagram>
</mxfile>
